<?xml version="1.0" encoding="utf-8"?>
<!-- Generator: Adobe Illustrator 19.0.0, SVG Export Plug-In . SVG Version: 6.00 Build 0)  -->
<svg version="1.1" id="Layer_1" xmlns="http://www.w3.org/2000/svg" xmlns:xlink="http://www.w3.org/1999/xlink" x="0px" y="0px"
	 viewBox="40 0 930 850" enable-background="new 40 0 930 850" xml:space="preserve">
<g id="Area_A">
	<path opacity="0.2" fill="#7F1416" stroke="#000000" stroke-width="3" stroke-miterlimit="10" enable-background="new    " d="
		M515,34.5c64.4-11.3,187.1,22.6,234,99c27,44,3.8,61.3-12,88c-16,27-51,42-56,58s-5,16-5,16s4,29,18,41s129,60,154,91s33,37,5,69
		s-139,40-191,63s-67,51-36,85s44,38,83,35s50,13,27,49s-89.9,39.6-138,27c-42-11-130-56-154-85s-66.4-68.8-36-151
		c27-73-3.7-109-10.8-127c-7.2-18-29.2-16-48.2-38s-17-36,0-56s45-36,27-71S412,52.5,515,34.5z"/>
</g>
<g id="Area_B">
	<path opacity="0.2" fill="#FEDA00" stroke="#000000" stroke-width="3" stroke-miterlimit="10" enable-background="new    " d="
		M479,107.6c-12.7-26.2-33-39-76-36s-139,40-169,82s-54,106-25,179s62,81,81,88s24,28,29,55s14,49,59,41s75-21,124,35s74,100,160,95
		s229-60.6,231-173c0.8-47-39.4-68.7-58-23c-9.1,22.3-29,38-50,38s-69-5-72-34s40.1-128.4,63-185c15.5-38.4,22.5-105-71-84
		c-49,11-94,42-125,49s-31,7-31,7s-39,3-49-36S494,138.6,479,107.6z"/>
</g>
<g id="Area_C">
	<path opacity="0.2" fill="#78C143" stroke="#000000" stroke-width="3" stroke-miterlimit="10" enable-background="new    " d="
		M295,279c-32-24-97-60-134,35s-35,198,0,234s84,66,134,73s58.2,1.5,81-15s54,5.9,74,18c20,12,47,3,57-19s10-22,10-22l0,0
		c0,0,8-65,116-61s141-23,184-134s5-173-21-209s-86-21-59,26s-12,79-23,86s-42,36-84-18s-43-100-91-153s-73.8-40.6-99,23
		c-14.2,35.9-20,86-34,130S339,312,295,279z"/>
</g>
<g id="Area_D">
	<path opacity="0.2" fill="#E7E6AA" stroke="#000000" stroke-width="3" stroke-miterlimit="10" enable-background="new    " d="
		M276,510.1c-51.7,15.2-110,52.8-63,135.4s157,182.6,259,125.6s104-90,103-113s46-42,59-46s45-18.3,26-54s-59.2-81,5.9-153
		s78.9-129,0-238S531.1,62.2,505,62.1c-34-0.1-102.4,39.1-26,64c30.7,10,50,44,50,63s26.2,70.7-71.1,60
		c-68.7-7.6-101.9-16.9-145.9-27c-83-19-114,36-53,109S395.6,475,276,510.1z"/>
</g>
<g id="Area_E">
	<path opacity="0.2" fill="#283277" stroke="#000000" stroke-width="3" stroke-miterlimit="10" enable-background="new    " d="
		M435,682c-22,64,3,145,167.1,129c181.3-17.7,171.7-152.3,172.3-193.6C775,576,763,554,748,540s-19-48-9-68s28-45-29-63
		s-97.2-16.6-109.2-111C588.7,203.6,519,160,397,152s-189,54-189,98s29.2,40.3,62.1,14.7C303,239,332,261,349,276s17,15,17,15
		s38,44-75,129s-150.8,149.6,43.5,151C477,572,458.9,612.4,435,682z"/>
</g>
<g id="Area_F">
	<path opacity="0.2" fill="#4F53A3" stroke="#000000" stroke-width="3" stroke-miterlimit="10" enable-background="new    " d="
		M671,655c28.8,42.6,90.8,113.2,198.7-29c74.3-98,37.4-173,14.3-216c-7.1-13.3-33-38.2-62-62c-20.6-16.9-40-20-62-22
		s-45,3.7-60.2-25.6C684.7,271.2,663,234,609,288s-98,19-140,3s-74.5-52.8-167.8-5.9S179,415,170,455s8.8,86,24.9,106
		s53,33.4,45.4-35c-2.3-21,19-38.8,46.7-53c27.7-14.2,64-33,81,38s-9,138,13,191s80,47,136-29S605.4,557.7,671,655z"/>
</g>
<g id="Area_G">
	<path opacity="0.2" fill="#CA4B9B" stroke="#000000" stroke-width="3" stroke-miterlimit="10" enable-background="new    " d="
		M792,458c48.9,9.6,150,15,106-148S779,139,696,143s-94,22-108,42s-23.7,33.2-54.8,30.9c-31.2-2.2-64.7-13.3-67.2,44.5
		c-2.1,47.6,20,80.5-93,127.5s-110.9,148.4-73,269c17.5,55.7,65.7,97,105,112s71-15,38-49s-41.1-51.3-22-89.7
		C440.1,592,461,569,576,659s144.8,70,154,20.9s-16.5-111.4-25.2-161.5C693,450,758.2,451.3,792,458z"/>
</g>
<g id="Text">
	<text transform="matrix(1 0 0 1 648.4585 112.05)" text-anchor="middle" dominant-baseline="middle" fill="#262262" stroke="#000000" stroke-width="0.5" stroke-miterlimit="10" font-family="'Tahoma'" font-size="36px" class="count" id="Count_A">Count_A</text>
	<text transform="matrix(1 0 0 1 448.5392 99.0872)" text-anchor="middle" dominant-baseline="middle" fill="#262262" stroke="#000000" stroke-width="0.5" stroke-miterlimit="10" font-family="'Tahoma'" font-size="10px" class="count" id="Count_ABD">Count_ABD</text>
	<text transform="matrix(1 0 0 1 390.7687 195.0424)" text-anchor="middle" dominant-baseline="middle" fill="#262262" stroke="#000000" stroke-width="0.5" stroke-miterlimit="10" font-family="'Tahoma'" font-size="10px" class="count" id="Count_ABE">Count_ABE</text>
	<text transform="matrix(1 0 0 1 443.0065 199.5314)" text-anchor="middle" dominant-baseline="middle" fill="#262262" stroke="#000000" stroke-width="0.5" stroke-miterlimit="10" font-family="'Tahoma'" font-size="10px" class="count" id="Count_ABCE">Count_ABCE</text>
	<text transform="matrix(1 0 0 1 476.1419 240.4931)" text-anchor="middle" dominant-baseline="middle" fill="#262262" stroke="#000000" stroke-width="0.5" stroke-miterlimit="10" font-family="'Tahoma'" font-size="10px" class="count" id="Count_ABCEG">Count_ABCEG</text>
	<text transform="matrix(1 0 0 1 424.4365 264.1823)" text-anchor="middle" dominant-baseline="middle" fill="#262262" stroke="#000000" stroke-width="0.5" stroke-miterlimit="10" font-family="'Tahoma'" font-size="10px" class="count" id="Count_ABCDE">Count_ABCDE</text>
	<text transform="matrix(1 0 0 1 384.9887 256.1781)" text-anchor="middle" dominant-baseline="middle" fill="#262262" stroke="#000000" stroke-width="0.5" stroke-miterlimit="10" font-family="'Tahoma'" font-size="10px" class="count" id="Count_ABDE">Count_ABDE</text>
	<text transform="matrix(1 0 0 1 367.9645 284.4218)" text-anchor="middle" dominant-baseline="middle" fill="#262262" stroke="#000000" stroke-width="0.5" stroke-miterlimit="10" font-family="'Tahoma'" font-size="10px" class="count" id="Count_ABDEF">Count_ABDEF</text>
	<text transform="matrix(1 0 0 1 346.9071 275.1728)" text-anchor="middle" dominant-baseline="middle" fill="#262262" stroke="#000000" stroke-width="0.5" stroke-miterlimit="10" font-family="'Tahoma'" font-size="10px" class="count" id="Count_BDEF">Count_BDEF</text>
	<text transform="matrix(1 0 0 1 299.9411 242.4933)" text-anchor="middle" dominant-baseline="middle" fill="#262262" stroke="#000000" stroke-width="0.5" stroke-miterlimit="10" font-family="'Tahoma'" font-size="10px" class="count" id="Count_BDE">Count_BDE</text>
	<text transform="matrix(1 0 0 1 254.7816 291.8718)" text-anchor="middle" dominant-baseline="middle" fill="#262262" stroke="#000000" stroke-width="0.5" stroke-miterlimit="10" font-family="'Tahoma'" font-size="10px" class="count" id="Count_BCD">Count_BCD</text>
	<text transform="matrix(1 0 0 1 233.8984 270.1106)" text-anchor="middle" dominant-baseline="middle" fill="#262262" stroke="#000000" stroke-width="0.5" stroke-miterlimit="10" font-family="'Tahoma'" font-size="10px" class="count" id="Count_BCDE">Count_BCDE</text>
	<text transform="matrix(1 0 0 1 209.7225 269.1104)" text-anchor="middle" dominant-baseline="middle" fill="#262262" stroke="#000000" stroke-width="0.5" stroke-miterlimit="10" font-family="'Tahoma'" font-size="10px" class="count" id="Count_BCE">Count_BCE</text>
	<text transform="matrix(1 0 0 1 299.0128 270.1104)" text-anchor="middle" dominant-baseline="middle" fill="#262262" stroke="#000000" stroke-width="0.5" stroke-miterlimit="10" font-family="'Tahoma'" font-size="10px" class="count" id="Count_BD">Count_BD</text>
	<text transform="matrix(1 0 0 1 537.3253 230.9541)" text-anchor="middle" dominant-baseline="middle" fill="#262262" stroke="#000000" stroke-width="0.5" stroke-miterlimit="10" font-family="'Tahoma'" font-size="10px" class="count" id="Count_ACDEG">Count_ACDEG</text>
	<text transform="matrix(1 0 0 1 507.2669 227.0262)" text-anchor="middle" dominant-baseline="middle" fill="#262262" stroke="#000000" stroke-width="0.5" stroke-miterlimit="10" font-family="'Tahoma'" font-size="10px" class="count" id="Count_ACEG">Count_ACEG</text>
	<text transform="matrix(1 0 0 1 503.7486 199.5315)" text-anchor="middle" dominant-baseline="middle" fill="#262262" stroke="#000000" stroke-width="0.5" stroke-miterlimit="10" font-family="'Tahoma'" font-size="10px" class="count" id="Count_ACE">Count_ACE</text>
	<text transform="matrix(1 0 0 1 532.26 209.0705)" text-anchor="middle" dominant-baseline="middle" fill="#262262" stroke="#000000" stroke-width="0.5" stroke-miterlimit="10" font-family="'Tahoma'" font-size="10px" class="count" id="Count_ACDE">Count_ACDE</text>
	<text transform="matrix(1 0 0 1 736.9608 176.6326)" text-anchor="middle" dominant-baseline="middle" fill="#262262" stroke="#000000" stroke-width="0.5" stroke-miterlimit="10" font-family="'Tahoma'" font-size="10px" class="count" id="Count_ACG">Count_ACG</text>
	<text transform="matrix(1 0 0 1 730.551 195.0426)" text-anchor="middle" dominant-baseline="middle" fill="#262262" stroke="#000000" stroke-width="0.5" stroke-miterlimit="10" font-family="'Tahoma'" font-size="10px" class="count" id="Count_ABCG">Count_ABCG</text>
	<text transform="matrix(1 0 0 1 794.5945 295.6925)" text-anchor="middle" dominant-baseline="middle" fill="#262262" stroke="#000000" stroke-width="0.5" stroke-miterlimit="10" font-family="'Tahoma'" font-size="12px" class="count" id="Count_CG">Count_CG</text>
	<text transform="matrix(1 0 0 1 837.7944 402.2477)" text-anchor="middle" dominant-baseline="middle" fill="#262262" stroke="#000000" stroke-width="0.5" stroke-miterlimit="10" font-family="'Tahoma'" font-size="12px" class="count" id="Count_FG">Count_FG</text>
	<text transform="matrix(1 0 0 1 788.5503 477.5615)" text-anchor="middle" dominant-baseline="middle" fill="#262262" stroke="#000000" stroke-width="0.5" stroke-miterlimit="10" font-family="'Tahoma'" font-size="12px" class="count" id="Count_AF">Count_AF</text>
	<text transform="matrix(1 0 0 1 807.0215 556.2225)" text-anchor="middle" dominant-baseline="middle" fill="#262262" stroke="#000000" stroke-width="0.5" stroke-miterlimit="10" font-family="'Tahoma'" font-size="12px" class="count" id="Count_BF">Count_BF</text>
	<text transform="matrix(1 0 0 1 601.9807 727.4918)" text-anchor="middle" dominant-baseline="middle" fill="#262262" stroke="#000000" stroke-width="0.5" stroke-miterlimit="10" font-family="'Tahoma'" font-size="12px" class="count" id="Count_AE">Count_AE</text>
	<text transform="matrix(1 0 0 1 477.5217 741.7651)" text-anchor="middle" dominant-baseline="middle" fill="#262262" stroke="#000000" stroke-width="0.5" stroke-miterlimit="10" font-family="'Tahoma'" font-size="12px" class="count" id="Count_DE">Count_DE</text>
	<text transform="matrix(1 0 0 1 744.7089 659.9883)" text-anchor="middle" dominant-baseline="middle" fill="#262262" stroke="#000000" stroke-width="0.5" stroke-miterlimit="10" font-family="'Tahoma'" font-size="12px" class="count" id="Count_EF">Count_EF</text>
	<text transform="matrix(1 0 0 1 731.6914 295.3453)" text-anchor="middle" dominant-baseline="middle" fill="#262262" stroke="#000000" stroke-width="0.5" stroke-miterlimit="10" font-family="'Tahoma'" font-size="12px" class="count" id="Count_BCG">Count_BCG</text>
	<text transform="matrix(1 0 0 1 626.518 340.5334)" text-anchor="middle" dominant-baseline="middle" fill="#262262" stroke="#000000" stroke-width="0.5" stroke-miterlimit="10" font-family="'Tahoma'" font-size="12px" class="count" id="Count_ABCDFG">Count_ABCDFG</text>
	<text transform="matrix(1 0 0 1 518.533 284.4216)" text-anchor="middle" dominant-baseline="middle" fill="#262262" stroke="#000000" stroke-width="0.5" stroke-miterlimit="10" font-family="'Tahoma'" font-size="12px" class="count" id="Count_ABCDEG">Count_ABCDEG</text>
	<text transform="matrix(1 0 0 1 396.5053 323.7971)" text-anchor="middle" dominant-baseline="middle" fill="#262262" stroke="#000000" stroke-width="0.5" stroke-miterlimit="10" font-family="'Tahoma'" font-size="12px" class="count" id="Count_ABCDEF">Count_ABCDEF</text>
	<text transform="matrix(1 0 0 1 652.4215 467.1723)" text-anchor="middle" dominant-baseline="middle" fill="#262262" stroke="#000000" stroke-width="0.5" stroke-miterlimit="10" font-family="'Tahoma'" font-size="12px" class="count" id="Count_ABCEFG">Count_ABCEFG</text>
	<text transform="matrix(1 0 0 1 567.1579 565.3593)" text-anchor="middle" dominant-baseline="middle" fill="#262262" stroke="#000000" stroke-width="0.5" stroke-miterlimit="10" font-family="'Tahoma'" font-size="12px" class="count" id="Count_ABDEFG">Count_ABDEFG</text>
	<text transform="matrix(1 0 0 1 423.5045 559.1869)" text-anchor="middle" dominant-baseline="middle" fill="#262262" stroke="#000000" stroke-width="0.5" stroke-miterlimit="10" font-family="'Tahoma'" font-size="12px" class="count" id="Count_ACDEFG">Count_ACDEFG</text>
	<text transform="matrix(1 0 0 1 356.9921 453.5528)" text-anchor="middle" dominant-baseline="middle" fill="#262262" stroke="#000000" stroke-width="0.5" stroke-miterlimit="10" font-family="'Tahoma'" font-size="12px" class="count" id="Count_BCDEFG">Count_BCDEFG</text>
	<text transform="matrix(1 0 0 1 705.6599 213.4527)" text-anchor="middle" dominant-baseline="middle" fill="#262262" stroke="#000000" stroke-width="0.5" stroke-miterlimit="10" font-family="'Tahoma'" font-size="10px" class="count" id="Count_ABG">Count_ABG</text>
	<text transform="matrix(1 0 0 1 723.1628 254.1779)" text-anchor="middle" dominant-baseline="middle" fill="#262262" stroke="#000000" stroke-width="0.5" stroke-miterlimit="10" font-family="'Tahoma'" font-size="10px" class="count" id="Count_BG">Count_BG</text>
	<text transform="matrix(1 0 0 1 695.225 279.2825)" text-anchor="middle" dominant-baseline="middle" fill="#262262" stroke="#000000" stroke-width="0.5" stroke-miterlimit="10" font-family="'Tahoma'" font-size="10px" class="count" id="Count_BDG">Count_BDG</text>
	<text transform="matrix(1 0 0 1 674.7654 295.3451)" text-anchor="middle" dominant-baseline="middle" fill="#262262" stroke="#000000" stroke-width="0.5" stroke-miterlimit="10" font-family="'Tahoma'" font-size="10px" class="count" id="Count_BDFG">Count_BDFG</text>
	<text transform="matrix(1 0 0 1 700.9166 305.9448)" text-anchor="middle" dominant-baseline="middle" fill="#262262" stroke="#000000" stroke-width="0.5" stroke-miterlimit="10" font-family="'Tahoma'" font-size="10px" class="count" id="Count_BCDG">Count_BCDG</text>
	<text transform="matrix(1 0 0 1 684.4779 323.7969)" text-anchor="middle" dominant-baseline="middle" fill="#262262" stroke="#000000" stroke-width="0.5" stroke-miterlimit="10" font-family="'Tahoma'" font-size="10px" class="count" id="Count_BCDFG">Count_BCDFG</text>
	<text transform="matrix(1 0 0 1 717.5524 341.5336)" text-anchor="middle" dominant-baseline="middle" fill="#262262" stroke="#000000" stroke-width="0.5" stroke-miterlimit="10" font-family="'Tahoma'" font-size="10px" class="count" id="Count_BCFG">Count_BCFG</text>
	<text transform="matrix(1 0 0 1 693.9127 385.4904)" text-anchor="middle" dominant-baseline="middle" fill="#262262" stroke="#000000" stroke-width="0.5" stroke-miterlimit="10" font-family="'Tahoma'" font-size="10px" class="count" id="Count_ABCFG">Count_ABCFG</text>
	<text transform="matrix(1 0 0 1 664.8901 539.1389)" text-anchor="middle" dominant-baseline="middle" fill="#262262" stroke="#000000" stroke-width="0.5" stroke-miterlimit="10" font-family="'Tahoma'" font-size="10px" class="count" id="Count_ABEFG">Count_ABEFG</text>
	<text transform="matrix(1 0 0 1 513.2603 611.6633)" text-anchor="middle" dominant-baseline="middle" fill="#262262" stroke="#000000" stroke-width="0.5" stroke-miterlimit="10" font-family="'Tahoma'" font-size="10px" class="count" id="Count_ADEFG">Count_ADEFG</text>
	<text transform="matrix(1 0 0 1 481.9143 659.0623)" text-anchor="middle" dominant-baseline="middle" fill="#262262" stroke="#000000" stroke-width="0.5" stroke-miterlimit="10" font-family="'Tahoma'" font-size="10px" class="count" id="Count_ADEF">Count_ADEF</text>
	<text transform="matrix(1 0 0 1 459.3622 617.5801)" text-anchor="middle" dominant-baseline="middle" fill="#262262" stroke="#000000" stroke-width="0.5" stroke-miterlimit="10" font-family="'Tahoma'" font-size="10px" class="count" id="Count_ACDEF">Count_ACDEF</text>
	<text transform="matrix(1 0 0 1 431.5811 614.0109)" text-anchor="middle" dominant-baseline="middle" fill="#262262" stroke="#000000" stroke-width="0.5" stroke-miterlimit="10" font-family="'Tahoma'" font-size="10px" class="count" id="Count_ACDF">Count_ACDF</text>
	<text transform="matrix(1 0 0 1 316.6974 601.9829)" text-anchor="middle" dominant-baseline="middle" fill="#262262" stroke="#000000" stroke-width="0.5" stroke-miterlimit="10" font-family="'Tahoma'" font-size="10px" class="count" id="Count_CDG">Count_CDG</text>
	<text transform="matrix(1 0 0 1 372.3744 592.3684)" text-anchor="middle" dominant-baseline="middle" fill="#262262" stroke="#000000" stroke-width="0.5" stroke-miterlimit="10" font-family="'Tahoma'" font-size="10px" class="count" id="Count_CDFG">Count_CDFG</text>
	<text transform="matrix(1 0 0 1 405.47 597.9272)" text-anchor="middle" dominant-baseline="middle" fill="#262262" stroke="#000000" stroke-width="0.5" stroke-miterlimit="10" font-family="'Tahoma'" font-size="10px" class="count" id="Count_ACDFG">Count_ACDFG</text>
	<text transform="matrix(1 0 0 1 403.4733 621.0323)" text-anchor="middle" dominant-baseline="middle" fill="#262262" stroke="#000000" stroke-width="0.5" stroke-miterlimit="10" font-family="'Tahoma'" font-size="10px" class="count" id="Count_ADFG">Count_ADFG</text>
	<text transform="matrix(1 0 0 1 211.937 571.1213)" text-anchor="middle" dominant-baseline="middle" fill="#262262" stroke="#000000" stroke-width="0.5" stroke-miterlimit="10" font-family="'Tahoma'" font-size="10px" class="count" id="Count_CDF">Count_CDF</text>
	<text transform="matrix(1 0 0 1 250.8009 549.2377)" text-anchor="middle" dominant-baseline="middle" fill="#262262" stroke="#000000" stroke-width="0.5" stroke-miterlimit="10" font-family="'Tahoma'" font-size="10px" class="count" id="Count_CDE">Count_CDE</text>
	<text transform="matrix(1 0 0 1 216.5263 551.238)" text-anchor="middle" dominant-baseline="middle" fill="#262262" stroke="#000000" stroke-width="0.5" stroke-miterlimit="10" font-family="'Tahoma'" font-size="10px" class="count" id="Count_CDEF">Count_CDEF</text>
	<text transform="matrix(1 0 0 1 258.3145 505.3453)" text-anchor="middle" dominant-baseline="middle" fill="#262262" stroke="#000000" stroke-width="0.5" stroke-miterlimit="10" font-family="'Tahoma'" font-size="10px" class="count" id="Count_CE">Count_CE</text>
	<text transform="matrix(1 0 0 1 290.3276 489.9001)" text-anchor="middle" dominant-baseline="middle" fill="#262262" stroke="#000000" stroke-width="0.5" stroke-miterlimit="10" font-family="'Tahoma'" font-size="10px" class="count" id="Count_CEG">Count_CEG</text>
	<text transform="matrix(1 0 0 1 327.5847 498.6269)" text-anchor="middle" dominant-baseline="middle" fill="#262262" stroke="#000000" stroke-width="0.5" stroke-miterlimit="10" font-family="'Tahoma'" font-size="10px" class="count" id="Count_BCDEG">Count_BCDEG</text>
	<text transform="matrix(1 0 0 1 290.5976 460.4708)" text-anchor="middle" dominant-baseline="middle" fill="#262262" stroke="#000000" stroke-width="0.5" stroke-miterlimit="10" font-family="'Tahoma'" font-size="10px" class="count" id="Count_CEFG">Count_CEFG</text>
	<text transform="matrix(1 0 0 1 245.6787 475.5615)" text-anchor="middle" dominant-baseline="middle" fill="#262262" stroke="#000000" stroke-width="0.5" stroke-miterlimit="10" font-family="'Tahoma'" font-size="10px" class="count" id="Count_CEF">Count_CEF</text>
	<text transform="matrix(1 0 0 1 308.7291 444.4151)" text-anchor="middle" dominant-baseline="middle" fill="#262262" stroke="#000000" stroke-width="0.5" stroke-miterlimit="10" font-family="'Tahoma'" font-size="10px" class="count" id="Count_BCEFG">Count_BCEFG</text>
	<text transform="matrix(1 0 0 1 299.7219 419.0425)" text-anchor="middle" dominant-baseline="middle" fill="#262262" stroke="#000000" stroke-width="0.5" stroke-miterlimit="10" font-family="'Tahoma'" font-size="10px" class="count" id="Count_BCEF">Count_BCEF</text>
	<text transform="matrix(1 0 0 1 342.3145 385.231)" text-anchor="middle" dominant-baseline="middle" fill="#262262" stroke="#000000" stroke-width="0.5" stroke-miterlimit="10" font-family="'Tahoma'" font-size="10px" class="count" id="Count_BCDEF">Count_BCDEF</text>
	<text transform="matrix(1 0 0 1 293.4025 340.5336)" text-anchor="middle" dominant-baseline="middle" fill="#262262" stroke="#000000" stroke-width="0.5" stroke-miterlimit="10" font-family="'Tahoma'" font-size="10px" class="count" id="Count_BCDF">Count_BCDF</text>
	<text transform="matrix(1 0 0 1 321.6558 288.3495)" text-anchor="middle" dominant-baseline="middle" fill="#262262" stroke="#000000" stroke-width="0.5" stroke-miterlimit="10" font-family="'Tahoma'" font-size="10px" class="count" id="Count_BDF">Count_BDF</text>
	<text transform="matrix(1 0 0 1 338.4163 329.4335)" text-anchor="middle" dominant-baseline="middle" fill="#262262" stroke="#000000" stroke-width="0.5" stroke-miterlimit="10" font-family="'Tahoma'" font-size="10px" class="count" id="Count_ABCDF">Count_ABCDF</text>
	<text transform="matrix(1 0 0 1 349.836 301.9386)" text-anchor="middle" dominant-baseline="middle" fill="#262262" stroke="#000000" stroke-width="0.5" stroke-miterlimit="10" font-family="'Tahoma'" font-size="10px" class="count" id="Count_ABDF">Count_ABDF</text>
	<text transform="matrix(1 0 0 1 255.5655 376.2531)" text-anchor="middle" dominant-baseline="middle" fill="#262262" stroke="#000000" stroke-width="0.5" stroke-miterlimit="10" font-family="'Tahoma'" font-size="10px" class="count" id="Count_BCF">Count_BCF</text>
	<text transform="matrix(1 0 0 1 314.3364 475.5614)" text-anchor="middle" dominant-baseline="middle" fill="#262262" stroke="#000000" stroke-width="0.5" stroke-miterlimit="10" font-family="'Tahoma'" font-size="10px" class="count" id="Count_BCEG">Count_BCEG</text>
	<text transform="matrix(1 0 0 1 306.0653 545.871)" text-anchor="middle" dominant-baseline="middle" fill="#262262" stroke="#000000" stroke-width="0.5" stroke-miterlimit="10" font-family="'Tahoma'" font-size="10px" class="count" id="Count_CDEG">Count_CDEG</text>
	<text transform="matrix(1 0 0 1 372.4756 533.3319)" text-anchor="middle" dominant-baseline="middle" fill="#262262" stroke="#000000" stroke-width="0.5" stroke-miterlimit="10" font-family="'Tahoma'" font-size="10px" class="count" id="Count_CDEFG">Count_CDEFG</text>
	<text transform="matrix(1 0 0 1 445.9556 707.9451)" text-anchor="middle" dominant-baseline="middle" fill="#262262" stroke="#000000" stroke-width="0.5" stroke-miterlimit="10" font-family="'Tahoma'" font-size="10px" class="count" id="Count_DEF">Count_DEF</text>
	<text transform="matrix(1 0 0 1 435.7416 751.1334)" text-anchor="middle" dominant-baseline="middle" fill="#262262" stroke="#000000" stroke-width="0.5" stroke-miterlimit="10" font-family="'Tahoma'" font-size="10px" class="count" id="Count_DEG">Count_DEG</text>
	<text transform="matrix(1 0 0 1 334.3181 660.9879)" text-anchor="middle" dominant-baseline="middle" fill="#262262" stroke="#000000" stroke-width="0.5" stroke-miterlimit="10" font-family="'Tahoma'" font-size="10px" class="count" id="Count_DG">Count_DG</text>
	<text transform="matrix(1 0 0 1 382.0356 632.3353)" text-anchor="middle" dominant-baseline="middle" fill="#262262" stroke="#000000" stroke-width="0.5" stroke-miterlimit="10" font-family="'Tahoma'" font-size="10px" class="count" id="Count_DFG">Count_DFG</text>
	<text transform="matrix(1 0 0 1 419.0564 671.6184)" text-anchor="middle" dominant-baseline="middle" fill="#262262" stroke="#000000" stroke-width="0.5" stroke-miterlimit="10" font-family="'Tahoma'" font-size="10px" class="count" id="Count_DF">Count_DF</text>
	<text transform="matrix(1 0 0 1 425.7555 638.9883)" text-anchor="middle" dominant-baseline="middle" fill="#262262" stroke="#000000" stroke-width="0.5" stroke-miterlimit="10" font-family="'Tahoma'" font-size="10px" class="count" id="Count_ADF">Count_ADF</text>
	<text transform="matrix(1 0 0 1 426.4396 729.4913)" text-anchor="middle" dominant-baseline="middle" fill="#262262" stroke="#000000" stroke-width="0.5" stroke-miterlimit="10" font-family="'Tahoma'" font-size="10px" class="count" id="Count_DEFG">Count_DEFG</text>
	<text transform="matrix(1 0 0 1 528.1312 694.2296)" text-anchor="middle" dominant-baseline="middle" fill="#262262" stroke="#000000" stroke-width="0.5" stroke-miterlimit="10" font-family="'Tahoma'" font-size="10px" class="count" id="Count_ADE">Count_ADE</text>
	<text transform="matrix(1 0 0 1 552.8036 639.442)" text-anchor="middle" dominant-baseline="middle" fill="#262262" stroke="#000000" stroke-width="0.5" stroke-miterlimit="10" font-family="'Tahoma'" font-size="10px" class="count" id="Count_ADEG">Count_ADEG</text>
	<text transform="matrix(1 0 0 1 572.0562 620.0319)" text-anchor="middle" dominant-baseline="middle" fill="#262262" stroke="#000000" stroke-width="0.5" stroke-miterlimit="10" font-family="'Tahoma'" font-size="10px" class="count" id="Count_ABDEG">Count_ABDEG</text>
	<text transform="matrix(1 0 0 1 677.3513 605.9897)" text-anchor="middle" dominant-baseline="middle" fill="#262262" stroke="#000000" stroke-width="0.5" stroke-miterlimit="10" font-family="'Tahoma'" font-size="10px" class="count" id="Count_BEFG">Count_BEFG</text>
	<text transform="matrix(1 0 0 1 702.847 691.7303)" text-anchor="middle" dominant-baseline="middle" fill="#262262" stroke="#000000" stroke-width="0.5" stroke-miterlimit="10" font-family="'Tahoma'" font-size="10px" class="count" id="Count_AEFG">Count_AEFG</text>
	<text transform="matrix(1 0 0 1 632.9301 685.5936)" text-anchor="middle" dominant-baseline="middle" fill="#262262" stroke="#000000" stroke-width="0.5" stroke-miterlimit="10" font-family="'Tahoma'" font-size="10px" class="count" id="Count_AEG">Count_AEG</text>
	<text transform="matrix(1 0 0 1 650.1468 662.9885)" text-anchor="middle" dominant-baseline="middle" fill="#262262" stroke="#000000" stroke-width="0.5" stroke-miterlimit="10" font-family="'Tahoma'" font-size="10px" class="count" id="Count_EG">Count_EG</text>
	<text transform="matrix(1 0 0 1 628.2321 638.4418)" text-anchor="middle" dominant-baseline="middle" fill="#262262" stroke="#000000" stroke-width="0.5" stroke-miterlimit="10" font-family="'Tahoma'" font-size="10px" class="count" id="Count_BEG">Count_BEG</text>
	<text transform="matrix(1 0 0 1 595.8573 637.4423)" text-anchor="middle" dominant-baseline="middle" fill="#262262" stroke="#000000" stroke-width="0.5" stroke-miterlimit="10" font-family="'Tahoma'" font-size="10px" class="count" id="Count_ABEG">Count_ABEG</text>
	<text transform="matrix(1 0 0 1 607.873 615.0109)" text-anchor="middle" dominant-baseline="middle" fill="#262262" stroke="#000000" stroke-width="0.5" stroke-miterlimit="10" font-family="'Tahoma'" font-size="10px" class="count" id="Count_BDEG">Count_BDEG</text>
	<text transform="matrix(1 0 0 1 623.2335 594.3693)" text-anchor="middle" dominant-baseline="middle" fill="#262262" stroke="#000000" stroke-width="0.5" stroke-miterlimit="10" font-family="'Tahoma'" font-size="10px" class="count" id="Count_BDEFG">Count_BDEFG</text>
	<text transform="matrix(1 0 0 1 727.3839 700.7721)" text-anchor="middle" dominant-baseline="middle" fill="#262262" stroke="#000000" stroke-width="0.5" stroke-miterlimit="10" font-family="'Tahoma'" font-size="10px" class="count" id="Count_AEF">Count_AEF</text>
	<text transform="matrix(1 0 0 1 695.2451 662.9887)" text-anchor="middle" dominant-baseline="middle" fill="#262262" stroke="#000000" stroke-width="0.5" stroke-miterlimit="10" font-family="'Tahoma'" font-size="10px" class="count" id="Count_EFG">Count_EFG</text>
	<text transform="matrix(1 0 0 1 752.0897 405.5741)" text-anchor="middle" dominant-baseline="middle" fill="#262262" stroke="#000000" stroke-width="0.5" stroke-miterlimit="10" font-family="'Tahoma'" font-size="10px" class="count" id="Count_ACFG">Count_ACFG</text>
	<text transform="matrix(1 0 0 1 715.6959 447.4151)" text-anchor="middle" dominant-baseline="middle" fill="#262262" stroke="#000000" stroke-width="0.5" stroke-miterlimit="10" font-family="'Tahoma'" font-size="10px" class="count" id="Count_ACEFG">Count_ACEFG</text>
	<text transform="matrix(1 0 0 1 751.5219 471.9618)" text-anchor="middle" dominant-baseline="middle" fill="#262262" stroke="#000000" stroke-width="0.5" stroke-miterlimit="10" font-family="'Tahoma'" font-size="10px" class="count" id="Count_ACF">Count_ACF</text>
	<text transform="matrix(1 0 0 1 733.7444 494.9507)" text-anchor="middle" dominant-baseline="middle" fill="#262262" stroke="#000000" stroke-width="0.5" stroke-miterlimit="10" font-family="'Tahoma'" font-size="10px" class="count" id="Count_ABCF">Count_ABCF</text>
	<text transform="matrix(1 0 0 1 736.94 596.9269)" text-anchor="middle" dominant-baseline="middle" fill="#262262" stroke="#000000" stroke-width="0.5" stroke-miterlimit="10" font-family="'Tahoma'" font-size="10px" class="count" id="Count_BEF">Count_BEF</text>
	<text transform="matrix(1 0 0 1 711.6599 531.2129)" text-anchor="middle" dominant-baseline="middle" fill="#262262" stroke="#000000" stroke-width="0.5" stroke-miterlimit="10" font-family="'Tahoma'" font-size="10px" class="count" id="Count_ABEF">Count_ABEF</text>
	<text transform="matrix(1 0 0 1 702.194 500.2031)" text-anchor="middle" dominant-baseline="middle" fill="#262262" stroke="#000000" stroke-width="0.5" stroke-miterlimit="10" font-family="'Tahoma'" font-size="10px" class="count" id="Count_ABCEF">Count_ABCEF</text>
	<text transform="matrix(1 0 0 1 719.033 470.9617)" text-anchor="middle" dominant-baseline="middle" fill="#262262" stroke="#000000" stroke-width="0.5" stroke-miterlimit="10" font-family="'Tahoma'" font-size="10px" class="count" id="Count_ACEF">Count_ACEF</text>
	<text transform="matrix(1 0 0 1 808.0912 434.026)" text-anchor="middle" dominant-baseline="middle" fill="#262262" stroke="#000000" stroke-width="0.5" stroke-miterlimit="10" font-family="'Tahoma'" font-size="10px" class="count" id="Count_AFG">Count_AFG</text>
	<text transform="matrix(1 0 0 1 836.9436 453.5518)" text-anchor="middle" dominant-baseline="middle" fill="#262262" stroke="#000000" stroke-width="0.5" stroke-miterlimit="10" font-family="'Tahoma'" font-size="10px" class="count" id="Count_ABFG">Count_ABFG</text>
	<text transform="matrix(1 0 0 1 805.1348 503.2031)" text-anchor="middle" dominant-baseline="middle" fill="#262262" stroke="#000000" stroke-width="0.5" stroke-miterlimit="10" font-family="'Tahoma'" font-size="10px" class="count" id="Count_ABF">Count_ABF</text>
	<text transform="matrix(1 0 0 1 771.8241 358.479)" text-anchor="middle" dominant-baseline="middle" fill="#262262" stroke="#000000" stroke-width="0.5" stroke-miterlimit="10" font-family="'Tahoma'" font-size="10px" class="count" id="Count_CFG">Count_CFG</text>
	<text transform="matrix(1 0 0 1 861.7782 443.2768)" text-anchor="middle" dominant-baseline="middle" fill="#262262" stroke="#000000" stroke-width="0.5" stroke-miterlimit="10" font-family="'Tahoma'" font-size="10px" class="count" id="Count_BFG">Count_BFG</text>
	<text transform="matrix(1 0 0 1 649.828 236.3257)" text-anchor="middle" dominant-baseline="middle" fill="#262262" stroke="#000000" stroke-width="0.5" stroke-miterlimit="10" font-family="'Tahoma'" font-size="10px" class="count" id="Count_ABDG">Count_ABDG</text>
	<text transform="matrix(1 0 0 1 568.0373 218.5893)" text-anchor="middle" dominant-baseline="middle" fill="#262262" stroke="#000000" stroke-width="0.5" stroke-miterlimit="10" font-family="'Tahoma'" font-size="10px" class="count" id="Count_ACDG">Count_ACDG</text>
	<text transform="matrix(1 0 0 1 589.4036 260.4855)" text-anchor="middle" dominant-baseline="middle" fill="#262262" stroke="#000000" stroke-width="0.5" stroke-miterlimit="10" font-family="'Tahoma'" font-size="10px" class="count" id="Count_ABCDG">Count_ABCDG</text>
	<text transform="matrix(1 0 0 1 640.0083 279.2827)" text-anchor="middle" dominant-baseline="middle" fill="#262262" stroke="#000000" stroke-width="0.5" stroke-miterlimit="10" font-family="'Tahoma'" font-size="10px" class="count" id="Count_ABDFG">Count_ABDFG</text>
	<text transform="matrix(1 0 0 1 418.3104 125.5554)" text-anchor="middle" dominant-baseline="middle" fill="#262262" stroke="#000000" stroke-width="0.5" stroke-miterlimit="10" font-family="'Tahoma'" font-size="12px" class="count" id="Count_AB">Count_AB</text>
	<text transform="matrix(1 0 0 1 311.6994 191.6759)" text-anchor="middle" dominant-baseline="middle" fill="#262262" stroke="#000000" stroke-width="0.5" stroke-miterlimit="10" font-family="'Tahoma'" font-size="12px" class="count" id="Count_BE">Count_BE</text>
	<text transform="matrix(1 0 0 1 211.3379 310.0757)" text-anchor="middle" dominant-baseline="middle" fill="#262262" stroke="#000000" stroke-width="0.5" stroke-miterlimit="10" font-family="'Tahoma'" font-size="12px" class="count" id="Count_BC">Count_BC</text>
	<text transform="matrix(1 0 0 1 211.7449 433.026)" text-anchor="middle" dominant-baseline="middle" fill="#262262" stroke="#000000" stroke-width="0.5" stroke-miterlimit="10" font-family="'Tahoma'" font-size="12px" class="count" id="Count_CF">Count_CF</text>
	<text transform="matrix(1 0 0 1 252.3274 594.3689)" text-anchor="middle" dominant-baseline="middle" fill="#262262" stroke="#000000" stroke-width="0.5" stroke-miterlimit="10" font-family="'Tahoma'" font-size="12px" class="count" id="Count_CD">Count_CD</text>
	<text transform="matrix(1 0 0 1 453.2006 146.7548)" text-anchor="middle" dominant-baseline="middle" fill="#262262" stroke="#000000" stroke-width="0.5" stroke-miterlimit="10" font-family="'Tahoma'" font-size="12px" class="count" id="Count_ABC">Count_ABC</text>
	<text transform="matrix(1 0 0 1 497.5778 164.7228)" text-anchor="middle" dominant-baseline="middle" fill="#262262" stroke="#000000" stroke-width="0.5" stroke-miterlimit="10" font-family="'Tahoma'" font-size="12px" class="count" id="Count_AC">Count_AC</text>
	<text transform="matrix(1 0 0 1 574.0994 127.5555)" text-anchor="middle" dominant-baseline="middle" fill="#262262" stroke="#000000" stroke-width="0.5" stroke-miterlimit="10" font-family="'Tahoma'" font-size="12px" class="count" id="Count_AD">Count_AD</text>
	<text transform="matrix(1 0 0 1 689.8556 169.7229)" text-anchor="middle" dominant-baseline="middle" fill="#262262" stroke="#000000" stroke-width="0.5" stroke-miterlimit="10" font-family="'Tahoma'" font-size="12px" class="count" id="Count_AG">Count_AG</text>
	<text transform="matrix(1 0 0 1 619.3986 186.4593)" text-anchor="middle" dominant-baseline="middle" fill="#262262" stroke="#000000" stroke-width="0.5" stroke-miterlimit="10" font-family="'Tahoma'" font-size="12px" class="count" id="Count_ADG">Count_ADG</text>
	<text transform="matrix(1 0 0 1 513.0342 139.8288)" text-anchor="middle" dominant-baseline="middle" fill="#262262" stroke="#000000" stroke-width="0.5" stroke-miterlimit="10" font-family="'Tahoma'" font-size="12px" class="count" id="Count_ACD">Count_ACD</text>
	<text transform="matrix(1 0 0 1 456.6347 115.457)" text-anchor="middle" dominant-baseline="middle" fill="#262262" stroke="#000000" stroke-width="0.5" stroke-miterlimit="10" font-family="'Tahoma'" font-size="10px" class="count" id="Count_ABCD">Count_ABCD</text>
	<text transform="matrix(1 0 0 1 347.049 134.3825)" text-anchor="middle" dominant-baseline="middle" fill="#262262" stroke="#000000" stroke-width="0.5" stroke-miterlimit="10" font-family="'Tahoma'" font-size="36px" class="count" id="Count_B">Count_B</text>
	<text transform="matrix(1 0 0 1 170.6681 359.0506)" text-anchor="middle" dominant-baseline="middle" fill="#262262" stroke="#000000" stroke-width="0.5" stroke-miterlimit="10" font-family="'Tahoma'" font-size="36px" class="count" id="Count_C">Count_C</text>
	<text transform="matrix(1 0 0 1 268.5263 690.7299)" text-anchor="middle" dominant-baseline="middle" fill="#262262" stroke="#000000" stroke-width="0.5" stroke-miterlimit="10" font-family="'Tahoma'" font-size="36px" class="count" id="Count_D">Count_D</text>
	<text transform="matrix(1 0 0 1 542.7615 795.7754)" text-anchor="middle" dominant-baseline="middle" fill="#262262" stroke="#000000" stroke-width="0.5" stroke-miterlimit="10" font-family="'Tahoma'" font-size="36px" class="count" id="Count_E">Count_E</text>
	<text transform="matrix(1 0 0 1 812.2908 646.3877)" text-anchor="middle" dominant-baseline="middle" fill="#262262" stroke="#000000" stroke-width="0.5" stroke-miterlimit="10" font-family="'Tahoma'" font-size="36px" class="count" id="Count_F">Count_F</text>
	<text transform="matrix(1 0 0 1 857.6548 343.658)" text-anchor="middle" dominant-baseline="middle" fill="#262262" stroke="#000000" stroke-width="0.5" stroke-miterlimit="10" font-family="'Tahoma'" font-size="36px" class="count" id="Count_G">Count_G</text>
	<text transform="matrix(1 0 0 1 454.9164 442.2776)" fill="#FFFFFF" stroke="#000000" stroke-width="0.5" stroke-miterlimit="10" font-family="'Tahoma'" font-size="36px" class="count" id="Count_ABCDEFG">Count_ABCDEFG</text>
	<text transform="matrix(1 0 0 1 682.12 54.5105)" text-anchor="middle" dominant-baseline="middle" fill="#262262" stroke="#000000" stroke-width="0.5" stroke-miterlimit="10" font-family="'Tahoma'" font-size="24px" class="name" id="Name_A">NameA</text>
	<text transform="matrix(1 0 0 1 803.7157 154.723)" text-anchor="middle" dominant-baseline="middle" fill="#262262" stroke="#000000" stroke-width="0.5" stroke-miterlimit="10" font-family="'Tahoma'" font-size="24px" class="name" id="Name_G">NameG</text>
	<text transform="matrix(1 0 0 1 821.4679 716.405)" text-anchor="middle" dominant-baseline="middle" fill="#262262" stroke="#000000" stroke-width="0.5" stroke-miterlimit="10" font-family="'Tahoma'" font-size="24px" class="name" id="Name_F">NameF</text>
	<text transform="matrix(1 0 0 1 662.3279 829.1023)" text-anchor="middle" dominant-baseline="middle" fill="#262262" stroke="#000000" stroke-width="0.5" stroke-miterlimit="10" font-family="'Tahoma'" font-size="24px" class="name" id="Name_E">NameE</text>
	<text transform="matrix(1 0 0 1 114.6655 751.1335)" text-anchor="middle" dominant-baseline="middle" fill="#262262" stroke="#000000" stroke-width="0.5" stroke-miterlimit="10" font-family="'Tahoma'" font-size="24px" class="name" id="Name_D">NameD</text>
	<text transform="matrix(1 0 0 1 48.9135 266.1099)" text-anchor="middle" dominant-baseline="middle" fill="#262262" stroke="#000000" stroke-width="0.5" stroke-miterlimit="10" font-family="'Tahoma'" font-size="21px" class="name" id="Name_C">NameC</text>
	<text transform="matrix(1 0 0 1 216.3187 78.1724)" text-anchor="middle" dominant-baseline="middle" fill="#262262" stroke="#000000" stroke-width="0.5" stroke-miterlimit="10" font-family="'Tahoma'" font-size="24px" class="name" id="Name_B">NameB</text>
</g>
</svg>
